<svg width="173" height="180" viewBox="0 0 173 180" fill="none" xmlns="http://www.w3.org/2000/svg">
<g clip-path="url(#clip0_14_7402)">
<path d="M24.5219 134.022C45.7195 168.641 90.9675 179.521 125.586 158.323C160.205 137.125 171.084 91.8775 149.887 57.2589" stroke="#99CCFF" stroke-width="2"/>
<path d="M25.6564 124.633L15.6142 129.592L11.3423 120.941L21.3846 115.982L22.0788 117.388L12.9117 121.915L13.1146 121.387L16.338 127.914L15.7879 127.74L24.9551 123.213L25.6564 124.633Z" fill="#F9F4AA"/>
<path d="M19.2564 109.43C19.5207 110.298 19.5753 111.117 19.4202 111.889C19.2621 112.651 18.9278 113.311 18.4173 113.868C17.9037 114.414 17.2438 114.811 16.4378 115.056C15.6317 115.302 14.8646 115.346 14.1365 115.189C13.4052 115.021 12.7729 114.684 12.2394 114.178C11.6926 113.664 11.3011 113.02 11.0648 112.244C10.8254 111.458 10.7875 110.712 10.951 110.004C11.1145 109.296 11.4612 108.678 11.9913 108.148C12.508 107.612 13.1847 107.216 14.0214 106.961C14.0826 106.942 14.1556 106.926 14.2403 106.911C14.3219 106.886 14.4 106.868 14.4745 106.856L16.5778 113.759L15.5217 114.081L13.6516 107.943L14.2008 108.428C13.6774 108.577 13.2457 108.825 12.906 109.174C12.5663 109.523 12.3448 109.931 12.2415 110.397C12.125 110.856 12.146 111.346 12.3046 111.866C12.46 112.377 12.7157 112.795 13.0716 113.121C13.4174 113.451 13.8336 113.664 14.3203 113.761C14.7969 113.861 15.3004 113.83 15.831 113.669L16.0759 113.594C16.6167 113.429 17.0641 113.159 17.418 112.784C17.7586 112.401 17.9779 111.95 18.0757 111.429C18.1736 110.909 18.134 110.358 17.9568 109.776C17.8106 109.297 17.5969 108.888 17.3155 108.55C17.031 108.202 16.6804 107.929 16.2637 107.733L16.9655 106.633C17.5059 106.869 17.9724 107.229 18.3647 107.712C18.754 108.184 19.0512 108.757 19.2564 109.43Z" fill="#F9F4AA"/>
<path d="M16.8662 98.7972C16.9665 99.494 16.9001 100.156 16.667 100.782C16.4217 101.399 16.0075 101.927 15.4242 102.367C14.8393 102.796 14.0718 103.079 13.1216 103.216C12.1714 103.353 11.356 103.303 10.6754 103.067C9.99331 102.82 9.45286 102.435 9.05405 101.91C8.65372 101.375 8.40187 100.749 8.29852 100.031C8.17997 99.2071 8.25458 98.4528 8.52235 97.7676C8.79012 97.0825 9.21942 96.5088 9.81025 96.0465C10.3905 95.5858 11.1082 95.2939 11.9634 95.1708C12.8186 95.0477 13.5948 95.1245 14.292 95.4013C14.9893 95.6781 15.563 96.1074 16.0131 96.6892C16.4633 97.271 16.7476 97.9737 16.8662 98.7972ZM20.4841 102.819L9.01835 104.469L8.8086 103.012L11.0733 102.686L13.0349 102.501L14.96 102.062L20.2653 101.298L20.4841 102.819ZM15.5541 99.1154C15.4766 98.5769 15.2861 98.114 14.9824 97.7267C14.6773 97.3288 14.2855 97.0403 13.8071 96.8613C13.3167 96.6733 12.7758 96.6218 12.1846 96.7069C11.5828 96.7936 11.0837 96.9948 10.6873 97.3105C10.2788 97.6171 9.98433 98.0044 9.80382 98.4722C9.62179 98.9295 9.56953 99.4273 9.64704 99.9658C9.72304 100.494 9.91361 100.957 10.2188 101.354C10.5224 101.742 10.9142 102.03 11.3941 102.22C11.8619 102.4 12.3967 102.447 12.9985 102.361C13.5897 102.276 14.0949 102.079 14.5139 101.771C14.9208 101.453 15.2153 101.066 15.3974 100.609C15.5779 100.141 15.6301 99.6433 15.5541 99.1154Z" fill="#F9F4AA"/>
<path d="M16.1539 88.4943C16.1462 89.401 15.9527 90.1993 15.5735 90.8895C15.1944 91.5689 14.6778 92.0979 14.0239 92.4763C13.3701 92.8441 12.6219 93.0244 11.7792 93.0172C10.9366 93.0101 10.1915 92.8224 9.54395 92.4542C8.89649 92.0753 8.39415 91.5644 8.03695 90.9213C7.66917 90.2675 7.48873 89.5353 7.49563 88.7246C7.50262 87.9033 7.69013 87.1796 8.05814 86.5533C8.42615 85.9271 8.94231 85.4408 9.60662 85.0945C10.2603 84.7373 11.0245 84.5625 11.8992 84.57C11.9632 84.5705 12.0378 84.5765 12.123 84.5879C12.2084 84.5886 12.2883 84.5946 12.3629 84.6059L12.3014 91.8216L11.1975 91.8122L11.2521 85.3965L11.6308 86.0237C11.0869 86.0084 10.6006 86.1163 10.172 86.3473C9.74332 86.5783 9.4099 86.9008 9.1717 87.3148C8.92292 87.7181 8.79622 88.1917 8.79158 88.7357C8.78704 89.269 8.90566 89.7447 9.14745 90.1627C9.37856 90.5807 9.71178 90.9089 10.1471 91.1473C10.5718 91.3856 11.0614 91.5071 11.6161 91.5118L11.872 91.514C12.4374 91.5188 12.9451 91.3951 13.3953 91.1429C13.8348 90.88 14.1793 90.5149 14.4286 90.0477C14.6779 89.5805 14.8052 89.0429 14.8104 88.4349C14.8146 87.9336 14.7332 87.4795 14.566 87.0728C14.3988 86.6553 14.1459 86.2905 13.8072 85.9783L14.8064 85.1387C15.2511 85.5265 15.5884 86.0094 15.8181 86.5874C16.048 87.1547 16.1599 87.7904 16.1539 88.4943Z" fill="#F9F4AA"/>
<path d="M16.3512 82.0198L7.949 80.8733L8.79259 74.6906L10.1243 74.8723L9.43857 79.8978L9.13955 79.4856L16.5588 80.4979L16.3512 82.0198Z" fill="#F9F4AA"/>
<path d="M17.0068 76.1473L15.7807 75.7168C15.8104 75.6475 15.8388 75.5833 15.8658 75.5243C15.8928 75.4653 15.9132 75.41 15.9271 75.3586C16.0161 75.029 15.9724 74.741 15.7959 74.4944C15.6221 74.2376 15.3624 74.0128 15.0167 73.82C14.6607 73.6245 14.2515 73.4421 13.7889 73.273C13.3263 73.1039 12.8609 72.9451 12.3928 72.7966L9.40278 71.84L11.1004 65.5532L19.2872 67.7639L18.8868 69.2468L11.565 67.2697L12.0935 67.0312L10.9589 71.2327L10.6027 70.7719L12.8442 71.4932C13.5567 71.7187 14.2159 71.9575 14.8218 72.2095C15.4278 72.4615 15.9439 72.739 16.3704 73.042C16.7996 73.3347 17.1077 73.6665 17.2948 74.0374C17.4847 74.3981 17.5171 74.8101 17.392 75.2735C17.3558 75.4074 17.3014 75.5474 17.2288 75.6935C17.1693 75.8321 17.0953 75.9834 17.0068 76.1473Z" fill="#F9F4AA"/>
<path d="M22.3637 60.0544L19.6301 58.8779L19.9896 58.7713L18.9206 61.2551C18.4736 62.2936 17.9032 63.012 17.2093 63.4101C16.5196 63.7984 15.7534 63.8112 14.9108 63.4486C14.0094 63.0606 13.4613 62.4589 13.2665 61.6435C13.0758 60.8182 13.204 59.8863 13.651 58.8477L15.1185 55.4381L22.9077 58.7905L22.3637 60.0544ZM19.9348 65.6979L17.8622 62.2976L18.4884 60.8426L20.5863 64.1842L19.9348 65.6979ZM19.1892 58.6882L15.4122 57.0626L15.9039 57.0129L14.9045 59.335C14.6262 59.9816 14.5336 60.534 14.6267 60.9922C14.7101 61.4461 15.0261 61.7911 15.5748 62.0273C16.5937 62.4658 17.3857 62.0286 17.9508 60.7157L18.9755 58.3349L19.1892 58.6882Z" fill="#F9F4AA"/>
<path d="M23.9432 56.681L16.7131 52.2498L17.5157 50.9402L20.5851 52.8213L23.1101 48.7015L20.0407 46.8203L20.8433 45.5107L28.0735 49.942L27.2708 51.2516L24.2424 49.3955L21.7174 53.5153L24.7459 55.3714L23.9432 56.681Z" fill="#F9F4AA"/>
<path d="M32.1747 49.8049C31.915 50.1162 31.6089 50.3748 31.2565 50.5808C30.9122 50.7937 30.5529 50.9246 30.1787 50.9735L29.7143 49.7318C30.0066 49.6979 30.2757 49.6168 30.5216 49.4885C30.7675 49.3603 30.9827 49.1856 31.1672 48.9644C31.4064 48.6778 31.5308 48.3787 31.5406 48.0674C31.5503 47.756 31.4351 47.3612 31.195 46.8831L30.6364 45.7294L30.5914 45.4836L26.8139 37.998L27.7774 36.8431L32.3058 45.9762C32.6074 46.5472 32.7901 47.0608 32.854 47.517C32.9248 47.965 32.8972 48.3727 32.7714 48.74C32.6537 49.1141 32.4548 49.4691 32.1747 49.8049ZM31.2178 46.3812L22.017 43.7477L23.042 42.5192L30.9524 44.8262L31.2178 46.3812Z" fill="#F9F4AA"/>
<path d="M36.7509 39.9669L31.6094 34.4573L32.163 34.4878L29.6129 36.8675L28.696 35.8849L34.3577 30.6014L35.2746 31.584L32.7362 33.9529L32.7324 33.4094L37.8739 38.919L36.7509 39.9669Z" fill="#F9F4AA"/>
<path d="M40.7848 36.2224L35.909 29.2843L37.1657 28.4012L40.7168 33.4542L41.4201 25.4113L42.559 24.6109L47.4349 31.5489L46.1782 32.4321L42.6271 27.3791L41.9368 35.4128L40.7848 36.2224Z" fill="#F9F4AA"/>
<path d="M58.0815 26.27L57.3783 24.6217L57.1728 24.344L55.9736 21.5332C55.7183 20.9347 55.345 20.5489 54.8537 20.3758C54.368 20.1887 53.7768 20.2438 53.0802 20.541C52.6191 20.7377 52.2013 21.0087 51.8267 21.3541C51.448 21.6896 51.161 22.0498 50.9657 22.4346L49.925 21.6262C50.1891 21.1308 50.5652 20.6804 51.0533 20.275C51.547 19.8557 52.1029 19.5141 52.721 19.2504C53.7904 18.7942 54.7254 18.7026 55.5261 18.9756C56.3268 19.2487 56.9553 19.9199 57.4115 20.9893L59.4207 25.6986L58.0815 26.27ZM55.5584 27.4507C54.9796 27.6977 54.4275 27.8172 53.9023 27.8094C53.3869 27.7973 52.9382 27.6698 52.5563 27.4269C52.1701 27.1741 51.8829 26.827 51.6945 26.3855C51.5145 25.9636 51.4494 25.5392 51.4991 25.1121C51.5587 24.6808 51.7701 24.2658 52.1335 23.8673C52.5068 23.4645 53.0809 23.0978 53.856 22.7671L56.3284 21.7123L56.7616 22.7278L54.3481 23.7575C53.6417 24.0588 53.2161 24.3796 53.0712 24.7197C52.9264 25.0598 52.9252 25.3966 53.0675 25.7302C53.2307 26.1128 53.5146 26.357 53.9192 26.4627C54.3197 26.5586 54.7897 26.4915 55.3293 26.2612C55.8591 26.0352 56.27 25.7208 56.562 25.3179C56.8638 24.9108 57.0067 24.4439 56.9908 23.9173L57.6848 24.7693C57.6951 25.3099 57.5234 25.8181 57.1696 26.2937C56.8117 26.7595 56.2746 27.1452 55.5584 27.4507Z" fill="#F9F4AA"/>
<path d="M65.386 23.982C64.552 24.2077 63.7567 24.2295 63.0003 24.0474C62.2541 23.8626 61.6107 23.5063 61.07 22.9785C60.5294 22.4507 60.1491 21.7801 59.929 20.9667C59.7089 20.1533 59.6992 19.3824 59.8999 18.654C60.1006 17.9256 60.4779 17.2986 61.0319 16.773C61.5933 16.2344 62.2911 15.8522 63.1251 15.6265C63.8664 15.4259 64.5658 15.3969 65.2232 15.5395C65.8881 15.669 66.4581 15.9788 66.9333 16.4691L66.0023 17.5C65.6259 17.1709 65.2171 16.9666 64.7756 16.8872C64.3417 16.7946 63.9034 16.8082 63.4607 16.928C62.9253 17.0729 62.4785 17.3209 62.1205 17.6719C61.7624 18.023 61.5183 18.4481 61.3882 18.9475C61.2553 19.4365 61.2683 19.9744 61.4271 20.5613C61.5859 21.1482 61.8474 21.6245 62.2115 21.99C62.5756 22.3556 63.0008 22.5997 63.487 22.7223C63.9733 22.8449 64.4841 22.8337 65.0195 22.6889C65.4622 22.5691 65.849 22.3649 66.1798 22.0765C66.5182 21.775 66.7669 21.3873 66.9259 20.9133L68.2456 21.3187C68.0796 21.9713 67.745 22.5315 67.2417 22.9992C66.7459 23.4538 66.1273 23.7814 65.386 23.982Z" fill="#F9F4AA"/>
<path d="M74.3264 22.2398C73.479 22.3408 72.7049 22.2451 72.004 21.9527C71.3031 21.6603 70.7235 21.2138 70.2652 20.6132C69.8056 20.002 69.5265 19.2833 69.428 18.4572C69.3282 17.6204 69.4305 16.8563 69.7347 16.1647C70.039 15.4732 70.4979 14.9082 71.1117 14.4698C71.7242 14.0207 72.4541 13.7457 73.3014 13.6447C74.1381 13.5449 74.9069 13.6412 75.6078 13.9336C76.318 14.2141 76.897 14.6553 77.3448 15.2572C77.8019 15.8473 78.0809 16.5659 78.182 17.4133C78.2818 18.25 78.1795 19.0141 77.8753 19.7057C77.5816 20.396 77.1232 20.9663 76.5002 21.4166C75.8877 21.8656 75.1631 22.14 74.3264 22.2398ZM74.1672 20.9052C74.7074 20.8408 75.1748 20.6615 75.5694 20.3674C75.9746 20.072 76.2725 19.6874 76.463 19.2135C76.6523 18.729 76.7116 18.1902 76.6409 17.597C76.5689 16.9933 76.3852 16.4889 76.0898 16.0836C75.7932 15.6678 75.4132 15.364 74.9499 15.1722C74.4972 14.9791 74.0007 14.9148 73.4605 14.9792C72.9204 15.0436 72.453 15.2229 72.0584 15.517C71.6637 15.8112 71.3659 16.1958 71.1647 16.671C70.9623 17.1355 70.8971 17.6697 70.9691 18.2734C71.0398 18.8665 71.2294 19.3757 71.5379 19.8008C71.8452 20.2153 72.2252 20.5191 72.6779 20.7122C73.1306 20.9053 73.627 20.9696 74.1672 20.9052Z" fill="#F9F4AA"/>
<path d="M85.2084 21.7799C84.505 21.7523 83.8664 21.5672 83.2927 21.2245C82.7301 20.8715 82.2855 20.3684 81.9588 19.7151C81.6428 19.0622 81.5036 18.2561 81.5412 17.2969C81.5788 16.3376 81.7753 15.5447 82.1308 14.9181C82.4969 14.292 82.974 13.8303 83.5621 13.5331C84.1609 13.2363 84.8226 13.1021 85.5474 13.1305C86.3788 13.1631 87.1071 13.3731 87.7324 13.7606C88.3577 14.148 88.8442 14.6742 89.1917 15.339C89.5397 15.9931 89.6968 16.7518 89.663 17.6152C89.6291 18.4785 89.4129 19.2279 89.0144 19.8635C88.6159 20.499 88.0898 20.9855 87.4361 21.3228C86.7823 21.6601 86.0398 21.8125 85.2084 21.7799ZM80.5981 24.6095L81.0517 13.0344L82.5226 13.0921L82.433 15.3783L82.26 17.341L82.3428 19.3138L82.1329 24.6697L80.5981 24.6095ZM85.1332 20.4319C85.6768 20.4532 86.1665 20.3497 86.6025 20.1212C87.0491 19.8932 87.4037 19.5602 87.6664 19.1221C87.9402 18.6738 88.0888 18.1513 88.1122 17.5544C88.136 16.9468 88.0285 16.4196 87.7899 15.9725C87.5623 15.5153 87.2348 15.1555 86.8074 14.8932C86.3906 14.6314 85.9105 14.4898 85.3669 14.4685C84.834 14.4476 84.3442 14.5512 83.8976 14.7792C83.4617 15.0076 83.107 15.3407 82.8337 15.7783C82.5714 16.2057 82.4283 16.7232 82.4045 17.3307C82.3811 17.9276 82.483 18.46 82.7102 18.9279C82.9485 19.3856 83.276 19.7453 83.6927 20.0072C84.1201 20.2695 84.6003 20.411 85.1332 20.4319Z" fill="#F9F4AA"/>
<path d="M93.5276 22.5219L94.8355 15.1002L95.1443 15.5608L91.7092 14.9554L91.9425 13.6318L99.569 14.9758L99.3357 16.2994L95.9164 15.6969L96.3482 15.3668L95.0403 22.7884L93.5276 22.5219Z" fill="#F9F4AA"/>
<path d="M99.0299 23.5127L101.619 15.4375L103.081 15.9065L101.196 21.7876L108.033 17.4939L109.359 17.9189L106.77 25.9941L105.307 25.5251L107.193 19.644L100.371 23.9425L99.0299 23.5127Z" fill="#F9F4AA"/>
<path d="M109.462 26.9918L113.351 19.4559L114.759 20.1823L115.124 27.4288L114.556 27.1353L120.759 23.2785L122.039 23.9388L118.15 31.4747L116.913 30.8363L120.009 24.8361L120.171 25.0814L114.538 28.5305L113.941 28.2224L113.525 21.5262L113.825 21.6087L110.714 27.6374L109.462 26.9918Z" fill="#F9F4AA"/>
<path d="M123.099 35.0962C122.37 34.5576 121.837 33.9321 121.501 33.2199C121.174 32.514 121.049 31.7853 121.127 31.0338C121.213 30.2886 121.507 29.5771 122.007 28.8993C122.508 28.2214 123.097 27.7286 123.776 27.4207C124.463 27.1191 125.171 27.0125 125.901 27.101C126.647 27.1873 127.345 27.4713 127.997 27.9529C128.658 28.4408 129.134 29.0176 129.424 29.6833C129.715 30.3489 129.806 31.0522 129.696 31.7933C129.601 32.5322 129.294 33.2534 128.774 33.9569C128.736 34.0084 128.687 34.0653 128.628 34.1276C128.578 34.1963 128.526 34.2574 128.473 34.3112L122.668 30.0241L123.324 29.136L128.485 32.9478L127.755 32.886C128.087 32.4547 128.285 31.9978 128.35 31.5152C128.415 31.0326 128.349 30.5733 128.154 30.1374C127.974 29.6992 127.665 29.3186 127.227 28.9954C126.798 28.6785 126.344 28.4952 125.863 28.4454C125.389 28.387 124.928 28.464 124.479 28.6763C124.037 28.8801 123.651 29.2051 123.322 29.6512L123.17 29.8572C122.834 30.3119 122.636 30.7955 122.575 31.308C122.53 31.8182 122.623 32.3114 122.855 32.7876C123.087 33.2637 123.447 33.6824 123.936 34.0437C124.34 34.3415 124.755 34.5422 125.182 34.6457C125.618 34.7556 126.062 34.7651 126.514 34.6744L126.607 35.9761C126.031 36.1083 125.443 36.0977 124.84 35.9443C124.246 35.7972 123.665 35.5145 123.099 35.0962Z" fill="#F9F4AA"/>
<path d="M128.182 38.9245L134.149 32.8991L135.24 33.9799L132.707 36.5378L136.141 39.9379L138.674 37.38L139.765 38.4608L133.798 44.4862L132.707 43.4054L135.206 40.8815L131.773 37.4814L129.273 40.0053L128.182 38.9245Z" fill="#F9F4AA"/>
<path d="M136.352 47.639L142.279 42.9841L142.202 43.5332L140.047 40.7901L141.104 39.9599L145.887 46.05L144.83 46.8802L142.686 44.1497L143.228 44.1921L137.301 48.8469L136.352 47.639Z" fill="#F9F4AA"/>
<path d="M76 80L96 100" stroke="white" stroke-width="2" stroke-linecap="round" stroke-linejoin="round"/>
<path d="M79.75 100H96V83.75" stroke="white" stroke-width="2" stroke-linecap="round" stroke-linejoin="round"/>
</g>
<defs>
<clipPath id="clip0_14_7402">
<rect width="173" height="180" fill="white"/>
</clipPath>
</defs>
</svg>
