<svg width="50" height="50" viewBox="0 0 50 50" fill="none" xmlns="http://www.w3.org/2000/svg">
<circle opacity="0.2" cx="25" cy="25" r="25" fill="white"/>
<path d="M25 30C27.7614 30 30 27.7614 30 25C30 22.2386 27.7614 20 25 20C22.2386 20 20 22.2386 20 25C20 27.7614 22.2386 30 25 30Z" stroke="white" stroke-width="2" stroke-linecap="round" stroke-linejoin="round"/>
<path d="M31.6353 35.0003C29.4075 36.4788 26.7497 37.171 24.0836 36.9671C21.4176 36.7631 18.8961 35.6747 16.9191 33.8744C14.9421 32.0742 13.6229 29.6653 13.1708 27.03C12.7188 24.3947 13.1597 21.6839 14.4237 19.3277C15.6877 16.9715 17.7024 15.1049 20.148 14.0241C22.5937 12.9433 25.3302 12.7102 27.9234 13.3618C30.5167 14.0133 32.818 15.5122 34.4624 17.6206C36.1067 19.729 36.9999 22.3262 37.0001 25C37.0001 27.7614 36.0001 30 33.5001 30C31.0001 30 30.0001 27.7614 30.0001 25V20" stroke="white" stroke-width="2" stroke-linecap="round" stroke-linejoin="round"/>
</svg>
