<svg width="50" height="50" viewBox="0 0 50 50" fill="none" xmlns="http://www.w3.org/2000/svg">
<circle opacity="0.2" cx="25" cy="25" r="25" fill="white"/>
<path d="M19.9998 25.8588L31.2395 35.7497C31.3695 35.8641 31.5271 35.9428 31.6967 35.9781C31.8663 36.0133 32.0421 36.0039 32.207 35.9507C32.3719 35.8976 32.5201 35.8025 32.6372 35.6748C32.7543 35.5471 32.8362 35.3912 32.8748 35.2224L37.5766 14.7058C37.6172 14.5284 37.6087 14.3433 37.5519 14.1704C37.4951 13.9975 37.3922 13.8434 37.2543 13.7246C37.1164 13.6059 36.9487 13.527 36.7693 13.4965C36.5899 13.4661 36.4056 13.4851 36.2362 13.5517L13.1666 22.6147C12.9655 22.6937 12.7954 22.8357 12.6818 23.0194C12.5682 23.2031 12.5171 23.4187 12.5361 23.6338C12.5552 23.849 12.6435 24.0522 12.7877 24.213C12.9319 24.3739 13.1243 24.4837 13.3361 24.5261L19.9998 25.8588Z" stroke="white" stroke-width="2" stroke-linecap="round" stroke-linejoin="round"/>
<path d="M20 25.8582L37.014 13.5703" stroke="white" stroke-width="2" stroke-linecap="round" stroke-linejoin="round"/>
<path d="M25.6134 30.7991L21.7071 34.7054C21.5673 34.8453 21.3891 34.9405 21.1951 34.9791C21.0011 35.0177 20.8 34.9979 20.6173 34.9222C20.4346 34.8465 20.2784 34.7183 20.1685 34.5539C20.0587 34.3894 20 34.1961 20 33.9983V25.8594" stroke="white" stroke-width="2" stroke-linecap="round" stroke-linejoin="round"/>
</svg>
