<svg width="102" height="166" viewBox="0 0 102 166" fill="none" xmlns="http://www.w3.org/2000/svg">
<path d="M101.465 3.20623C101.579 2.66582 101.234 2.1354 100.693 2.0215L91.8866 0.165412C91.3462 0.0515137 90.8157 0.397271 90.7018 0.937684C90.5879 1.4781 90.9337 2.00852 91.4741 2.12242L99.3021 3.77227L97.6523 11.6003C97.5384 12.1407 97.8841 12.6711 98.4246 12.785C98.965 12.8989 99.4954 12.5532 99.6093 12.0128L101.465 3.20623ZM84.847 151.295C67.6752 134.04 55.0168 108.035 55 80.9369C54.9833 53.8965 67.5516 25.6626 101.033 3.83773L99.9408 2.16227C65.9222 24.3374 52.9828 53.1869 53 80.9381C53.0172 108.631 65.9344 135.126 83.4294 152.705L84.847 151.295Z" fill="url(#paint0_linear_79_14423)"/>
<path opacity="0.8" d="M53.492 122.934L55.9033 125.984L52.892 143.188L63.1149 135.106L65.1244 137.647L44.9609 153.589L42.9514 151.047L52.7225 143.322L35.9185 142.152L33.6411 139.271L50.3618 140.278L53.492 122.934Z" fill="white"/>
<path opacity="0.8" d="M46.6515 108.728L48.0877 111.592L33.1883 119.064L35.7381 124.148C38.5702 122.996 41.0324 122.097 43.1246 121.451C45.1954 120.815 46.9552 120.443 48.404 120.334C49.8528 120.225 51.0283 120.374 51.9304 120.78C52.8324 121.187 53.5148 121.852 53.9774 122.774C54.1172 123.053 54.2357 123.343 54.3326 123.643C54.4403 123.911 54.4942 124.153 54.4945 124.367L52.3706 125.433C52.3489 125.282 52.3112 125.127 52.2573 124.966C52.2035 124.805 52.1389 124.649 52.0636 124.499C51.8269 124.027 51.4186 123.695 50.8388 123.502C50.259 123.31 49.4969 123.263 48.5525 123.36C47.5973 123.437 46.4545 123.647 45.124 123.992C43.772 124.348 42.2217 124.844 40.4729 125.479C38.7242 126.114 36.7717 126.879 34.6154 127.772L29.4028 117.378L46.6515 108.728Z" fill="white"/>
<path opacity="0.8" d="M26.0202 107.539L44.3529 101.518L45.3413 104.528L27.0086 110.549L26.0202 107.539ZM19.6284 111.267C19.4786 110.811 19.5072 110.36 19.7141 109.913C19.8907 109.451 20.3097 109.111 20.9709 108.894C21.6094 108.684 22.1481 108.709 22.5871 108.969C23.0187 109.206 23.3094 109.553 23.4591 110.009C23.6239 110.511 23.6028 110.985 23.3959 111.432C23.189 111.879 22.7663 112.207 22.1278 112.417C21.4666 112.634 20.9316 112.62 20.5228 112.375C20.0913 112.138 19.7931 111.769 19.6284 111.267Z" fill="white"/>
<path opacity="0.8" d="M21.8546 88.8939L21.2832 85.4855L31.8063 92.0804L40.2005 81.6207L40.8076 85.2421L32.5907 95.4532L42.248 93.8342L42.7718 96.9586L23.7413 100.149L23.2175 97.0244L32.4487 95.477L21.8546 88.8939Z" fill="white"/>
<path opacity="0.8" d="M21.0969 75.8315L29.1043 76.4065L29.8547 65.9575L21.8473 65.3824L22.0743 62.2225L41.3207 63.6047L41.0938 66.7646L32.5119 66.1483L31.7615 76.5974L40.3434 77.2137L40.1164 80.3735L20.87 78.9913L21.0969 75.8315Z" fill="white"/>
<path opacity="0.8" d="M35.6643 55.9311C35.8671 56.0055 36.1558 56.1243 36.5306 56.2875C36.891 56.4198 37.2812 56.5758 37.701 56.7555C38.0982 56.927 38.4842 57.0942 38.8589 57.2574C39.2111 57.4123 39.4957 57.5423 39.7128 57.6476L28.1003 42.3775L29.4404 38.7277L47.554 45.3784L46.5366 48.1495L35.8576 44.2286C35.4971 44.0963 35.024 43.9225 34.4383 43.7075C33.8608 43.4699 33.2945 43.2364 32.7396 43.0071C32.1621 42.7695 31.731 42.5856 31.4464 42.4556L43.0499 57.6457L41.6974 61.3292L23.5838 54.6786L24.6137 51.8736L35.6643 55.9311Z" fill="white"/>
<path opacity="0.8" d="M50.5618 36.9265C49.9962 36.5208 49.6584 35.983 49.5482 35.3132C49.4324 34.6099 49.5774 33.9755 49.9831 33.4099C50.3888 32.8444 50.9364 32.5136 51.6257 32.4173C52.3095 32.2876 52.9341 32.4256 53.4997 32.8313C54.0652 33.237 54.4058 33.7915 54.5215 34.4948C54.6318 35.1647 54.484 35.7823 54.0783 36.3478C53.6726 36.9134 53.1278 37.261 52.444 37.3907C51.7547 37.4869 51.1273 37.3322 50.5618 36.9265ZM34.0324 20.1945L49.0675 30.9808L47.3887 33.3209L32.3536 22.5346L34.0324 20.1945Z" fill="white"/>
<defs>
<linearGradient id="paint0_linear_79_14423" x1="77.2434" y1="3" x2="122" y2="159.5" gradientUnits="userSpaceOnUse">
<stop stop-color="white"/>
<stop offset="1" stop-color="white" stop-opacity="0"/>
</linearGradient>
</defs>
</svg>
